<mxfile host="app.diagrams.net" modified="2024-02-12T15:42:21.442Z" agent="Mozilla/5.0 (Windows NT 10.0; Win64; x64) AppleWebKit/537.36 (KHTML, like Gecko) Chrome/121.0.0.0 Safari/537.36" etag="IznV30b7Y0R7cEJ8cTdf" version="23.1.1" type="device">
  <diagram name="PÃ¡gina-1" id="Hb9yVG6W6c0Zp9_hR-NE">
    <mxGraphModel dx="926" dy="484" grid="1" gridSize="10" guides="1" tooltips="1" connect="1" arrows="1" fold="1" page="1" pageScale="1" pageWidth="827" pageHeight="1169" math="0" shadow="0">
      <root>
        <mxCell id="0" />
        <mxCell id="1" parent="0" />
        <mxCell id="ppUPSIefKLprEWSVOHWy-12" value="" style="edgeStyle=orthogonalEdgeStyle;rounded=0;orthogonalLoop=1;jettySize=auto;html=1;" edge="1" parent="1" source="ppUPSIefKLprEWSVOHWy-1" target="ppUPSIefKLprEWSVOHWy-9">
          <mxGeometry relative="1" as="geometry" />
        </mxCell>
        <mxCell id="ppUPSIefKLprEWSVOHWy-1" value="Inicio" style="ellipse;whiteSpace=wrap;html=1;" vertex="1" parent="1">
          <mxGeometry x="340" y="30" width="120" height="80" as="geometry" />
        </mxCell>
        <mxCell id="ppUPSIefKLprEWSVOHWy-24" style="edgeStyle=orthogonalEdgeStyle;rounded=0;orthogonalLoop=1;jettySize=auto;html=1;" edge="1" parent="1" source="ppUPSIefKLprEWSVOHWy-4" target="ppUPSIefKLprEWSVOHWy-9">
          <mxGeometry relative="1" as="geometry" />
        </mxCell>
        <mxCell id="ppUPSIefKLprEWSVOHWy-4" value="Repetir" style="rhombus;whiteSpace=wrap;html=1;" vertex="1" parent="1">
          <mxGeometry x="630" y="160" width="130" height="80" as="geometry" />
        </mxCell>
        <mxCell id="ppUPSIefKLprEWSVOHWy-29" value="" style="edgeStyle=orthogonalEdgeStyle;rounded=0;orthogonalLoop=1;jettySize=auto;html=1;" edge="1" parent="1" source="ppUPSIefKLprEWSVOHWy-6" target="ppUPSIefKLprEWSVOHWy-27">
          <mxGeometry relative="1" as="geometry" />
        </mxCell>
        <mxCell id="ppUPSIefKLprEWSVOHWy-6" value="entonces&lt;br&gt;Reiniciar Segundos a 0" style="shape=parallelogram;perimeter=parallelogramPerimeter;whiteSpace=wrap;html=1;fixedSize=1;" vertex="1" parent="1">
          <mxGeometry x="300" y="430" width="200" height="90" as="geometry" />
        </mxCell>
        <mxCell id="ppUPSIefKLprEWSVOHWy-23" value="" style="edgeStyle=orthogonalEdgeStyle;rounded=0;orthogonalLoop=1;jettySize=auto;html=1;" edge="1" parent="1" source="ppUPSIefKLprEWSVOHWy-9" target="ppUPSIefKLprEWSVOHWy-17">
          <mxGeometry relative="1" as="geometry" />
        </mxCell>
        <mxCell id="ppUPSIefKLprEWSVOHWy-9" value="&lt;br&gt;&lt;span style=&quot;color: rgb(0, 0, 0); font-family: Helvetica; font-size: 12px; font-style: normal; font-variant-ligatures: normal; font-variant-caps: normal; font-weight: 400; letter-spacing: normal; orphans: 2; text-align: center; text-indent: 0px; text-transform: none; widows: 2; word-spacing: 0px; -webkit-text-stroke-width: 0px; background-color: rgb(251, 251, 251); text-decoration-thickness: initial; text-decoration-style: initial; text-decoration-color: initial; float: none; display: inline !important;&quot;&gt;Inicializar Horas, Minutos y Segundos&lt;/span&gt;&lt;br&gt;" style="shape=parallelogram;perimeter=parallelogramPerimeter;whiteSpace=wrap;html=1;fixedSize=1;" vertex="1" parent="1">
          <mxGeometry x="310" y="150" width="180" height="80" as="geometry" />
        </mxCell>
        <mxCell id="ppUPSIefKLprEWSVOHWy-19" value="" style="edgeStyle=orthogonalEdgeStyle;rounded=0;orthogonalLoop=1;jettySize=auto;html=1;" edge="1" parent="1" source="ppUPSIefKLprEWSVOHWy-17" target="ppUPSIefKLprEWSVOHWy-6">
          <mxGeometry relative="1" as="geometry" />
        </mxCell>
        <mxCell id="ppUPSIefKLprEWSVOHWy-22" style="edgeStyle=orthogonalEdgeStyle;rounded=0;orthogonalLoop=1;jettySize=auto;html=1;entryX=0.5;entryY=1;entryDx=0;entryDy=0;" edge="1" parent="1" source="ppUPSIefKLprEWSVOHWy-17" target="ppUPSIefKLprEWSVOHWy-4">
          <mxGeometry relative="1" as="geometry" />
        </mxCell>
        <mxCell id="ppUPSIefKLprEWSVOHWy-17" value="&lt;br&gt;&lt;span style=&quot;color: rgb(0, 0, 0); font-family: Helvetica; font-size: 12px; font-style: normal; font-variant-ligatures: normal; font-variant-caps: normal; font-weight: 400; letter-spacing: normal; orphans: 2; text-align: center; text-indent: 0px; text-transform: none; widows: 2; word-spacing: 0px; -webkit-text-stroke-width: 0px; background-color: rgb(251, 251, 251); text-decoration-thickness: initial; text-decoration-style: initial; text-decoration-color: initial; float: none; display: inline !important;&quot;&gt;Incrementar Segundos&lt;/span&gt;&lt;br style=&quot;border-color: var(--border-color); color: rgb(0, 0, 0); font-family: Helvetica; font-size: 12px; font-style: normal; font-variant-ligatures: normal; font-variant-caps: normal; font-weight: 400; letter-spacing: normal; orphans: 2; text-align: center; text-indent: 0px; text-transform: none; widows: 2; word-spacing: 0px; -webkit-text-stroke-width: 0px; background-color: rgb(251, 251, 251); text-decoration-thickness: initial; text-decoration-style: initial; text-decoration-color: initial;&quot;&gt;&lt;span style=&quot;color: rgb(0, 0, 0); font-family: Helvetica; font-size: 12px; font-style: normal; font-variant-ligatures: normal; font-variant-caps: normal; font-weight: 400; letter-spacing: normal; orphans: 2; text-align: center; text-indent: 0px; text-transform: none; widows: 2; word-spacing: 0px; -webkit-text-stroke-width: 0px; background-color: rgb(251, 251, 251); text-decoration-thickness: initial; text-decoration-style: initial; text-decoration-color: initial; float: none; display: inline !important;&quot;&gt;Si Segundos es = 60?&lt;span&gt;&amp;nbsp;&lt;/span&gt;&lt;/span&gt;&lt;br&gt;" style="rhombus;whiteSpace=wrap;html=1;" vertex="1" parent="1">
          <mxGeometry x="310" y="270" width="180" height="100" as="geometry" />
        </mxCell>
        <mxCell id="ppUPSIefKLprEWSVOHWy-18" value="si" style="text;html=1;align=center;verticalAlign=middle;resizable=0;points=[];autosize=1;strokeColor=none;fillColor=none;" vertex="1" parent="1">
          <mxGeometry x="450" y="350" width="30" height="30" as="geometry" />
        </mxCell>
        <mxCell id="ppUPSIefKLprEWSVOHWy-20" value="no" style="text;html=1;align=center;verticalAlign=middle;resizable=0;points=[];autosize=1;strokeColor=none;fillColor=none;" vertex="1" parent="1">
          <mxGeometry x="500" y="240" width="40" height="30" as="geometry" />
        </mxCell>
        <mxCell id="ppUPSIefKLprEWSVOHWy-30" value="" style="edgeStyle=orthogonalEdgeStyle;rounded=0;orthogonalLoop=1;jettySize=auto;html=1;" edge="1" parent="1" source="ppUPSIefKLprEWSVOHWy-27" target="ppUPSIefKLprEWSVOHWy-28">
          <mxGeometry relative="1" as="geometry" />
        </mxCell>
        <mxCell id="ppUPSIefKLprEWSVOHWy-33" style="edgeStyle=orthogonalEdgeStyle;rounded=0;orthogonalLoop=1;jettySize=auto;html=1;" edge="1" parent="1" source="ppUPSIefKLprEWSVOHWy-27" target="ppUPSIefKLprEWSVOHWy-4">
          <mxGeometry relative="1" as="geometry" />
        </mxCell>
        <mxCell id="ppUPSIefKLprEWSVOHWy-27" value="&lt;br&gt;&lt;span style=&quot;color: rgb(0, 0, 0); font-family: Helvetica; font-size: 12px; font-style: normal; font-variant-ligatures: normal; font-variant-caps: normal; font-weight: 400; letter-spacing: normal; orphans: 2; text-align: center; text-indent: 0px; text-transform: none; widows: 2; word-spacing: 0px; -webkit-text-stroke-width: 0px; background-color: rgb(251, 251, 251); text-decoration-thickness: initial; text-decoration-style: initial; text-decoration-color: initial; float: none; display: inline !important;&quot;&gt;Incrementar minutos&lt;/span&gt;&lt;br style=&quot;border-color: var(--border-color); color: rgb(0, 0, 0); font-family: Helvetica; font-size: 12px; font-style: normal; font-variant-ligatures: normal; font-variant-caps: normal; font-weight: 400; letter-spacing: normal; orphans: 2; text-align: center; text-indent: 0px; text-transform: none; widows: 2; word-spacing: 0px; -webkit-text-stroke-width: 0px; background-color: rgb(251, 251, 251); text-decoration-thickness: initial; text-decoration-style: initial; text-decoration-color: initial;&quot;&gt;&lt;span style=&quot;color: rgb(0, 0, 0); font-family: Helvetica; font-size: 12px; font-style: normal; font-variant-ligatures: normal; font-variant-caps: normal; font-weight: 400; letter-spacing: normal; orphans: 2; text-align: center; text-indent: 0px; text-transform: none; widows: 2; word-spacing: 0px; -webkit-text-stroke-width: 0px; background-color: rgb(251, 251, 251); text-decoration-thickness: initial; text-decoration-style: initial; text-decoration-color: initial; float: none; display: inline !important;&quot;&gt;Si minutos es = 60?&lt;span&gt;&amp;nbsp;&lt;/span&gt;&lt;/span&gt;" style="rhombus;whiteSpace=wrap;html=1;" vertex="1" parent="1">
          <mxGeometry x="310" y="560" width="180" height="100" as="geometry" />
        </mxCell>
        <mxCell id="ppUPSIefKLprEWSVOHWy-35" value="" style="edgeStyle=orthogonalEdgeStyle;rounded=0;orthogonalLoop=1;jettySize=auto;html=1;" edge="1" parent="1" source="ppUPSIefKLprEWSVOHWy-28" target="ppUPSIefKLprEWSVOHWy-34">
          <mxGeometry relative="1" as="geometry" />
        </mxCell>
        <mxCell id="ppUPSIefKLprEWSVOHWy-28" value="entonces&lt;br&gt;Reiniciar minutos a 0" style="shape=parallelogram;perimeter=parallelogramPerimeter;whiteSpace=wrap;html=1;fixedSize=1;" vertex="1" parent="1">
          <mxGeometry x="300" y="710" width="200" height="90" as="geometry" />
        </mxCell>
        <mxCell id="ppUPSIefKLprEWSVOHWy-31" value="Si" style="text;html=1;align=center;verticalAlign=middle;resizable=0;points=[];autosize=1;strokeColor=none;fillColor=none;" vertex="1" parent="1">
          <mxGeometry x="425" y="668" width="30" height="30" as="geometry" />
        </mxCell>
        <mxCell id="ppUPSIefKLprEWSVOHWy-32" value="no" style="text;html=1;align=center;verticalAlign=middle;resizable=0;points=[];autosize=1;strokeColor=none;fillColor=none;" vertex="1" parent="1">
          <mxGeometry x="480" y="550" width="40" height="30" as="geometry" />
        </mxCell>
        <mxCell id="ppUPSIefKLprEWSVOHWy-37" value="" style="edgeStyle=orthogonalEdgeStyle;rounded=0;orthogonalLoop=1;jettySize=auto;html=1;" edge="1" parent="1" source="ppUPSIefKLprEWSVOHWy-34" target="ppUPSIefKLprEWSVOHWy-36">
          <mxGeometry relative="1" as="geometry" />
        </mxCell>
        <mxCell id="ppUPSIefKLprEWSVOHWy-40" style="edgeStyle=orthogonalEdgeStyle;rounded=0;orthogonalLoop=1;jettySize=auto;html=1;" edge="1" parent="1" source="ppUPSIefKLprEWSVOHWy-34" target="ppUPSIefKLprEWSVOHWy-4">
          <mxGeometry relative="1" as="geometry" />
        </mxCell>
        <mxCell id="ppUPSIefKLprEWSVOHWy-34" value="&lt;br&gt;&lt;span style=&quot;color: rgb(0, 0, 0); font-family: Helvetica; font-size: 12px; font-style: normal; font-variant-ligatures: normal; font-variant-caps: normal; font-weight: 400; letter-spacing: normal; orphans: 2; text-align: center; text-indent: 0px; text-transform: none; widows: 2; word-spacing: 0px; -webkit-text-stroke-width: 0px; background-color: rgb(251, 251, 251); text-decoration-thickness: initial; text-decoration-style: initial; text-decoration-color: initial; float: none; display: inline !important;&quot;&gt;Incrementar horas&lt;/span&gt;&lt;br style=&quot;border-color: var(--border-color); color: rgb(0, 0, 0); font-family: Helvetica; font-size: 12px; font-style: normal; font-variant-ligatures: normal; font-variant-caps: normal; font-weight: 400; letter-spacing: normal; orphans: 2; text-align: center; text-indent: 0px; text-transform: none; widows: 2; word-spacing: 0px; -webkit-text-stroke-width: 0px; background-color: rgb(251, 251, 251); text-decoration-thickness: initial; text-decoration-style: initial; text-decoration-color: initial;&quot;&gt;&lt;span style=&quot;color: rgb(0, 0, 0); font-family: Helvetica; font-size: 12px; font-style: normal; font-variant-ligatures: normal; font-variant-caps: normal; font-weight: 400; letter-spacing: normal; orphans: 2; text-align: center; text-indent: 0px; text-transform: none; widows: 2; word-spacing: 0px; -webkit-text-stroke-width: 0px; background-color: rgb(251, 251, 251); text-decoration-thickness: initial; text-decoration-style: initial; text-decoration-color: initial; float: none; display: inline !important;&quot;&gt;Si horas es = 24?&lt;span&gt;&amp;nbsp;&lt;/span&gt;&lt;/span&gt;" style="rhombus;whiteSpace=wrap;html=1;" vertex="1" parent="1">
          <mxGeometry x="310" y="830" width="180" height="100" as="geometry" />
        </mxCell>
        <mxCell id="ppUPSIefKLprEWSVOHWy-42" value="" style="edgeStyle=orthogonalEdgeStyle;rounded=0;orthogonalLoop=1;jettySize=auto;html=1;" edge="1" parent="1" source="ppUPSIefKLprEWSVOHWy-36" target="ppUPSIefKLprEWSVOHWy-41">
          <mxGeometry relative="1" as="geometry" />
        </mxCell>
        <mxCell id="ppUPSIefKLprEWSVOHWy-36" value="entonces&lt;br&gt;Reiniciar horas a 0" style="shape=parallelogram;perimeter=parallelogramPerimeter;whiteSpace=wrap;html=1;fixedSize=1;" vertex="1" parent="1">
          <mxGeometry x="300" y="978" width="200" height="90" as="geometry" />
        </mxCell>
        <mxCell id="ppUPSIefKLprEWSVOHWy-38" value="si" style="text;html=1;align=center;verticalAlign=middle;resizable=0;points=[];autosize=1;strokeColor=none;fillColor=none;" vertex="1" parent="1">
          <mxGeometry x="435" y="948" width="30" height="30" as="geometry" />
        </mxCell>
        <mxCell id="ppUPSIefKLprEWSVOHWy-39" value="no" style="text;html=1;align=center;verticalAlign=middle;resizable=0;points=[];autosize=1;strokeColor=none;fillColor=none;" vertex="1" parent="1">
          <mxGeometry x="500" y="830" width="40" height="30" as="geometry" />
        </mxCell>
        <mxCell id="ppUPSIefKLprEWSVOHWy-41" value="fin" style="ellipse;whiteSpace=wrap;html=1;" vertex="1" parent="1">
          <mxGeometry x="340" y="1089" width="120" height="80" as="geometry" />
        </mxCell>
      </root>
    </mxGraphModel>
  </diagram>
</mxfile>
